<svg id="Layer_1" xmlns="http://www.w3.org/2000/svg" viewBox="0 0 96.4 96.4"><style>path{fill:#fff}</style><path d="M48.2 96.4C21.6 96.4 0 74.8 0 48.2S21.6 0 48.2 0s48.2 21.6 48.2 48.2-21.6 48.2-48.2 48.2zm0-95.7C22 .7.7 22 .7 48.2S22 95.7 48.2 95.7s47.5-21.3 47.5-47.5S74.4.7 48.2.7z"/><path d="M48.2 2.7C23.1 2.7 2.7 23.1 2.7 48.2s20.4 45.5 45.5 45.5 45.5-20.4 45.5-45.5S73.3 2.7 48.2 2.7zM8.9 62.1c-.1-.1-.5-.8-.8-1.4-.3-.6-.1-.8.2-1.1.3-.2.7.4 1.1.8.4.4 1.3 1.2 1.5 1.6.2.3.2.4.4.2s.6.5.5.9c0 .4.1 3.5.1 3.5-.5-.3-1.6-1.2-1.9-1.5-.2-.2-.2-.3-.5-.4-.3-.2-.5-.5-.7-.8-.3-.3-.5-.5-.7-.6-.1-.1-.1-.8-.3-1.2-.1-.4 0-.5.3-.4.2.1 1 .7 1 .7s0-.2-.2-.3zm.3-4.4c.1-.2.8-.9 1.5-.1.2.2.5.8.3 1.4-.1.5-.5.6-.7.3-.2-.3-.7-.8-.8-1-.2-.2-.5-.4-.3-.6zm2.3-.3c0-.5.3-1 .5-.9.2 0 .7.5.9.8.2.4.2 1 .1 1.4 0 .4-.3 1.2-.5 1.7-.1.5-.5.7-.8.3-.3-.3-.3-1.7-.3-2.2.1.1.1-.6.1-1.1zm36.7 34c-11.5 0-22-4.6-29.8-12 .5.1 1 .1 1.6 0 1.4-.3 2.8-.7 2.8-.7s1.3.5 1.7.4c.8-.2 1-1 1-1s.3-.4.4-.5c.1-.1.2-.1.4-.1s.7-.2 1.1-.4c.4-.2.7-.5.8-.5.1 0 .1.2.5.1.5-.1.9-.4 1-.5.1-.1.3-.3.5-.3.2-.1.4 0 .5 0 .2 0 .4-.2.8-.4s.3-.5.4-.7c0-.2.1-.2.2-.2s.1.1.3.2c.2.1.4.2.7.4.3.1.8.1 1.3.1s1-.5 1.2-.7c.2-.2.4-.6.7-.6.4 0 1.1-.3 1.2-.4.1-.1.1-.2.1-.3 0-.1.1 0 .2.1s.4.1.7.1c.3 0 .5 0 1 .1.5.2 1.3 1.5 1.8 2.3.4.8.4 1.6.4 1.6l.3-.2c.3-.2.4-.3.5-1.1.1-.8-.2-1.9-.5-2.5-.2-.5-.4-.7-1-1.4s-1.4-1.4-2.2-1.5c-.8-.1-1.5.2-1.8.3-.2.1-.3.2-.3.3 0 .1-.1.1-.2.2-.1 0-.4.1-.6.2-.2.1-.4.3-.6.2-.1-.1-.1-.2 0-.4s.6-.4.7-.5c.2-.1.1-.4 0-.5 0-.1-.2-.1-.2-.2-.1-.1.1-.2.5-.4s1.6-.2 2.8.1c1.2.3 2.9 1.5 2.9 1.5-.7-1.6-1.4-2.1-2-2.5-.6-.4-2.4-1.2-3.7-1.3-1.3-.2-2.1-.1-2.8.2-.7.3-1 .8-1 1.3 0 .4.3.5.3.6 0 .1-.3.2-.4.3-.2.1-.7.5-.7.5-.1.1 0 .1-.3.2-.2.1-.6.6-.7.7 0 .1-.1.3-.2.3-.2.1-1.2.1-1.6.1-.4 0-.6.3-.6.3-.9.2-1.1.6-1.2.9-.1.3 0 .3-.1.5s-1 .8-1 .8c-.6-.1-1.2 0-1.5.1-.3.1-.6.3-.7.4-.1.1-.4-.1-.8-.4-.4-.3-.9-.1-1.1-.1-.3.2-.9.5-.9.5v-.4c0-.2.1-.8 0-1-.1-.2.5-.8.6-1 .1-.2.3-.2.4-.2.1 0 .4.1 1 .1s.9-.4 1-.6c.1-.1.1-.1.5.1s.7.2 1 .2c.3-.1 1-.6 1.1-.7.1-.1.1 0 .5 0 .4.1.8-.1 1-.2.2-.1.2 0 .5.1s.6 0 1.1-.3c.5-.3.5-.9.5-1 0-.1.1-.2.2-.2s.1-.1.3-.2c.2-.1.1-.5.1-.8-.1-.3 0-.8 0-1 0-.3-.1-.3-.3-.8-.2-.5.1-.4.3-.3.2 0 .5-.1.7-.4.2-.2.4-1 .6-1.2.1-.3.3-.2.6-.3.2-.1.6-.5.9-.9.3-.3.4-.3 1-.3s1.7.2 2.5.5 2 1.2 2 1.2-.7-1.7-1.8-2.5-2.2-1-3.5-1c-1.2-.1-2 .3-2.3.5-.3.2-.5.5-.6.8-.1.3-.2.2-.3.2-.1 0-.3-.1-.3-.1s.1-.4.1-.6c.1-.2.1-.4 0-.5v-.1h.4c.1 0 .3-.1.8-.6s2-.5 2.5-.5 2 .3 2 .3-1-1.4-2.9-1.8c-1.9-.4-2.8 0-3.1.1-.3.1-.8.4-1.1.5-.2.1-.5.2-.5.3-.1.1.1.3.1.4 0 .1-.1.1-.3.1-.2.1-.3.1-.5.3-.3.2-.5.7-.5 1.2-.1.5-.1 1.1 0 1.4.1.3.3.3.5.3.1 0 .1.1.1.3 0 .1-.1.3-.3.5-.1.3-.1.6-.1 1.1 0 .6.2.9.3 1.1.1.2 0 .1-.3.3-.3.1-.6.5-.8.7-.2.2-.2.1-.6.2-.4.1-.5.3-.9.5s-.5.1-.9.2-.4.1-.6.3c-.2.2-.3.4-.5.5-.2.1-.8.1-1.2.1-.4 0-.6.1-.8.1-.2 0-1.4-.3-1.6-.4-.2-.1-.2-.2-.2-.4s-.3-.7-.7-.7c-.4-.1-.7.1-1 .4-.4.3-.6.7-.9 1.2-.3.5-.3 1.1-.4 1.1-.1 0-.5-.4-.7-.6-.2-.2-.3-.5-.6-.6-.3-.2-.6-.1-.6-.1 0-.2-.2-.4-.4-1.3s.2-3.5.2-3.5c.9.2 2.4 1.3 2.4 1.3s-.5-1.2-.9-1.9-1.2-1.5-1.2-1.6c0 0-.1-.2.2-1.5.3-1.3.9-1.5 1.7-1.6.8-.1.9-.4 1-.8.1-.4.1-2.4.1-2.6 0-.2.1-.2.2-.2s.2.1.2.3c0 .2.1.6.2 1s.2 1.8.2 2.4c0 .6-.2 1.1-.3 1.5-.1.4-.3 2.1-.3 2.5 0 .5-.1 3.1-.1 3.1s.4-1.4.5-1.5c0-.1.4-1.3.6-1.8.2-.5.8-1.8 1-2.1.1-.3.5-.6.7-.9.2-.3.3-.8.4-1.1.1-.3.3-2.4.4-3.2.1-.8.3-1.4.3-1.5.1-.1 0 0 0 .1s.4.8.4.8.6 1.2.8 1.5c.1.3.1.5 0 .8-.1.3-.8 1.3-1.3 2.3-.5 1-1 2.4-1.3 3.6-.3 1.1-.3 2.9-.3 2.9s.3-.6.6-1.5 1.2-2.5 1.7-3.4c.5-.9 1.1-1.7 1.2-1.8.1-.1.2-.2.3 0l.4.8c.1-.7.1-1.1.1-1.6 0-.4 0-.8.1-1 .1-.2.8-2.2.9-2.4.1-.2.2-.1.1.1 0 .2-.3 1.1-.4 1.7-.1.6-.8 4-.8 4l1.5-3c.1-.2.3-.5.4-.7.1-.2.5-1.4.7-1.7.1-.3.3-.8.3-.9 0-.1.1-.2.1-.3.1-.2.4-1.2.6-1.5.1-.4.7-1.6.8-1.7 0-.1.1-.1.2.1 0 .2-.1 3.4-.1 3.4l-.1 3.5s1-2.9 1-3.1c.1-.2.4-.8.4-.9v-.5c0-.2.2-1.2.4-1.9.1-.7.3-3.3.3-3.3h.1s.1 1.5.1 1.8c0 .3.1 1.3.1 1.3.3-.7.5-2 .5-2h.1s-.1 1.6-.1 2.2c0 .6-.3 4.7-.3 4.7s.3-.9.5-1.7c.2-.8.6-1.5.7-1.9.2-.4.2-.7.2-.9 0-.2.1-.3.3-.5.1-.2.3-2.1.3-2.2 0-.1 0 0 0 0 0 .3.4.9.6 1.5.2.6.6 1.9.9 2.6.3.7.8 1.1 1.5 2 .7.8 1.7 1.4 2.2 1.7.5.2 2.3 1.2 2.9 1.6.5.4 1.7 1 2.3 1.3.6.3 2.1 1 2.6 1.2.5.2 1.2.6 1.7.8.4.2 1.2.7 1.8 1.2.7.5 1.1.9 1.3 1.2.3.3.9 1 1.2 1.3.4.4.9.8 1.6 1.3.7.6 1.5 1.3 2 1.9.5.5 1.8 1.2 2.7 1.4.8.3 3 .5 3.6.6.6 0 1.5-.2 1.9-.3.4-.1 1 0 1.5 0 .6 0 1.1-.4 1.1-.4.9-.2 1.2-.5 1.3-1.1.1-.6-.5-1.2-1.3-1.8-.8-.5-2.3-.9-2.8-1.1-.5-.1-.8-.4-1-.5-.2-.1-2.1-1-2.6-1.3-.5-.3-1.1-.9-1.3-1.1-.2-.2-2.6-2.7-3-3.1-.4-.4-2.3-2.1-2.9-2.6-.6-.5-1-1.2-1-1.2s-.8-1.6-.9-1.7v-.6c0-.2-.2-1.1-.3-1.2V53c0-.2-.2-.7-.3-.9-.1-.2-.2-.2-.3-.3-.1 0-.1-.1-.1-.1v-.1c-.1-.1 0-.2 0-.2s.2-.4.5-.7v-.2c0-.1 0-.1.1-.2.1 0 .3.2.4.4.2.2.3.5.9.6.5 0 .7-.1.9-.3.2-.2 0-.8-.1-1.2-.1-.3-.6-1.4-.6-1.6-.1-.2-.1-.5-.2-.9s-.6-.9-.9-1.2c-.3-.3-.6-.7-1.2-1.2-.5-.5-1.1-.8-1.5-1-.4-.2.4-.5.8-.8.4-.3 1.2-.7 1.8-.8.7-.1 2 .5 3 .8 1 .3 1.5.1 1.8 0 .3-.1.8-.3 1.4-.1.5.2 1.3 1.1 1.5 1.5.3.3.5.5 1.4.6.9.1 1.7.6 2.3 1 .7.5 1.5.8 1.8.9.3.1 1.2.5 1.8.7.6.1 2.3.5 2.9.7.6.2 2.3.9 2.8 1 .5.1 2.5.1 2.9.1.4-.1.9-.4 1.1-.6.2-.1 0 0 .2.5.1.6.8.5 1 .5.2 0 .4-.3.4-.3.1 0 0 .1.2.4.2.3.6.3 1 .3.5 0 .5-.6.6-.8 0-.2.1.1.1.3 0 .2.1.4.5.6.4.2 1.1-.4 1.1-.4s-.1.5.5.8c.5.3.6.6.6 1.1 0 .5.4.7.7 1 .3.2.7.2 1.3-.2.6-.4 1.1-1.4 1.4-1.8.2-.4.9-1.2 1.8-2.9.9-1.6-.5-3.7-1.5-5-.8-1-1.2-1-1.2-1-.2-.7-.8-1.5-1.2-1.9-.4-.4-.2-.4-.7-1.1-.5-.7-3.2-2-4.3-2.6-1-.6-2.5-1-2.9-1.1-.3-.2-1.7-1.4-2.4-1.8-.7-.4-3.3-2-3.7-2.3-.3-.2-2.9-1.6-3.6-2.1-.7-.4-1.4-1.5-2-2-.6-.5-1.3-.7-1.8-1-.5-.2-.9-.9-1.2-1.2-.3-.3-.6-.4-.9-.5-.3-.1-.5-.5-.7-.7-.2-.2-.1-.2-.1-.4s-.4-.7-.8-1.1c-.4-.4-1.1-.7-1.6-.7s-1.1.1-1.1.1 0-.1.2-.6c.2-.4-.2-.8-.3-1-.1-.1 0-.2-.1-.6-.1-.4-.9-1-1.2-1.1-.2-.1-.3 0-.3 0-.4-.2-.5-.1-1.1-.2-.6 0-.9 0-1.2-.3-.4-.4-.5-.5-.9-.8-.4-.4-.3-.4-.8-.8-.4-.4-1.6-.2-2.3.2-.7.4-1.2 1.1-1.4 1.2-.2.1-.4.1-.6.2-.2.1-.4.2-1 .1s-1.1 0-1.9.2c-.7.2-1.4.7-1.8.9-.4.2-1.1.1-1.8.2s-1.5.3-1.8.5c-.3.2-1.1.7-1.6.7-.4 0-.7.3-1.2.3-.5.1-.6-.1-.9-.3-.3-.3-.8-.4-1.7-.6-.6-.1-.6-.2-1.3-.8-.6-.5-1.1.1-1.4.5-.3.4-.1.6.2 1.1.3.5.8.7 1.2 1.1.4.4.2 1.1.3 1.6 0 .4.3.7.6.9.2.2 0 .4-.2.4-.3 0-1-.3-1.3-.5-.4-.2-1.7-1.3-2.3-1.7-.6-.4-1-.4-1.4-.3-.4.1-1.1.5-1.7.8-.6.3-.6.6-.5 1 .1.3.8.7 1.2.8.4.1.9.5 1.2.7.3.2.2.2.2.4v.6c.1.3.6.6 1 .8.3.1.2.4.1.6-.1.2-.5.3-.7.3-.2 0-1.1-.2-1.5-.3-.4 0-.7 0-1-.2-.4-.2-1.3-.9-1.6-1-.3-.2-.8-.3-1.5-.3s-1.2.5-1.3.9c-.2.4.1.6.2.8.2.2.6.4 1.1.8.4.4.5.8.5 1.2 0 .4.2 1.1.4 1.5.2.4.4.5.4.6 0 .2 0 .3-.3.5s-.8 0-1.7-.5c-.8-.5-1.5-.7-2-.7s-.8.3-1 .5c-.1.2-.2.5 0 1 .2.4 1.2 1.4 1.4 1.6.2.2.2.6.3.9.1.3.6.7.7.9.1.2 0 .2-.1.1-.1 0-1-.7-1.2-.8-.2-.1-.6-.2-.9 0-.3.2-.2.6.1 1.1.3.6 1.2 2.2 1.2 2.3.1.1-.1.3-.3.2-.2 0-.6-.5-1.1-.8-.5-.4-.9-.5-1.3-.6-.4-.1-.8 0-.9.5-.1.5.3 1 .8 1.7.4.7.6 1.1.6 1.5.1.4-.2.5-.3.6-.1.1-.1 0-.8-.8-.7-.8-1.6-.4-1.9-.1-.3.2-.3.4-.2.7 0 .2.3 1 .6 1.5.3.6.2 1.1.1 1.4-.1.3-.6 1-.8 1.3-.2.3-.3.2-.4 0-.1-.2-.4-.5-.9-.9s-.9-.4-1.2-.2c-.2.2-.2.4-.1.7.1.3.9 2 1.1 2.2.1.2.1.6-.2.5-.3-.1-.5-.7-1.1-1.4-.5-.7-1-.6-1.3-.4-.3.2-.2.7 0 1.1.2.4.2.7.2 1.2 0 .6 0 .7-.3.6-.3-.2-.7-1.2-1.3-2.2-.7-1-.9-.9-1.2-.9-.3 0-.5.4-.5.8-.1.4-.1 1.2-.1 1.6-.1.4-.3.7-.5 1.1-.2.4-.3.5-.4.5h-.1c-.1-.7-.2-1.4-.2-2.2C5 24.4 24.4 5 48.2 5s43.2 19.4 43.2 43.2C91.4 72 72 91.4 48.2 91.4zM24.5 54c.1.3.1.8 0 1.2 0 .3-.2.4-.4.9s-.4.8-.7.6c-.3-.2-.3-.9-.2-1.5.1-.6.2-1 .3-1.4 0-.4 0-.7.1-1 .1-.2.5-.3.6-.3.4 0 .5.6.5.8-.1.3-.3.4-.2.7zm27.9-24.4c-.2-.5-1.5-2-1.6-3-.1-1 .1-2.3 1.4-2.8 1.2-.4 2.4-.3 3.1 1.5.4 1.1 1.3 3.6 1.1 4.8-.2 1.2-.1 1.4-.7 2.1-.6.7-1.2 1.5-1.4 2-.2.5-1 1.7-2.1 1.7-1 0-1.8-.6-2.3-1.3-.6-.7-.7-1-.4-1.8.3-.8.8-1.4 1.7-1.9.9-.4 1.4-.8 1.2-1.3zm7 3.9c-.4-.6-.3-.8-.3-1.4 0-.6 0-.7-.2-1.2-.2-.6-.3-1 0-1.5.4-.6.8-.7 1.5-.7 1.1.1 2.2 1.9 2.7 3.1.5 1.1 1.8 1.8 3.4 3.4 1.6 1.6 1.1 2.9.6 3.6-.4.7-1.9 2.1-2.8 2.6-1 .5-1.3.2-2-.1-.8-.3-.7-.6-.9-1-.2-.4-.5-.5-1-.7-.5-.2-.2-.3-.3-.6 0-.3-.4-.5-1.3-1.1-.8-.6-.4-1-.3-1.5.1-.5.8-.8 1.3-1.3.4-.7 0-1-.4-1.6zm9.5 5.9c1-.2 1.2-.1 2.2.3 1 .4 1.4 1.2 1.6 1.7.2.5 0 1-.5 1.2-.4.4-1.6.4-2.5.4-.8 0-1.2-.1-1.5-.2-.3-.1-.6-.2-1.1-.4-.6-.2-.8-.5-.9-.8-.1-.3.1-.8.3-.9.6-.8 1.4-1 2.4-1.3z"/><path d="M64.4 66.3c.2.1.4.1.6.1.5-.1.9-.3 1.2-.8.1-.2.2-.3.3-.5.7-1.3 1.1-2.5 1.4-3.9 0 0 .1-.2.2-.9-.1.2-.5 1-.6 1.1-.8 1.4-1.6 2.5-2.8 3.6l-.3.3c-.1.1-.2.3-.3.4-.1.2.1.5.3.6zm-5.8-3.2l.1.1c.3.2.5.2.8-.1l.4-.4c.2-.3.3-.6.4-.9.3-.7.5-1.3.8-2 .1-.2.3-.8.4-1-.4.3-.6.6-.7.8-.5.8-1 1.3-1.8 1.9-.2.1-.4.3-.5.4-.4.5-.4.8.1 1.2zm1.5 1.3c.2.2.4.1.7-.1l.3-.3c.2-.3.3-.6.4-.9.2-.5.3-1 .4-1.5.1-.5.4-1.6.5-2.1-.1 0-.5.9-.6 1-.6 1.1-1.2 2-2 2.9-.1.1-.1.2-.1.2 0 .2.1.5.4.8zm1.7 1.1c.1.1.3.1.5.2.5.2 1 .1 1.3-.4.4-.5.9-1.1 1.2-1.6.1-.2.3-.5.3-.9-.1.2-.4.4-.4.5-.4.4-.9.6-1.7.9-.3.1-.7.3-1 .5-.1.1-.3.2-.4.3-.1.2 0 .4.2.5zm-4.6-4.1c.5.4.9.3 1.2-.2.5-.8.7-1.6.9-2.5 0-.1 0-.4.1-.7-.3.4-.6.8-.9 1.1-.3.3-.8.9-1.1 1.2-.3.3-.8.3-.4.8 0 .2.1.3.2.3zm-2.4-2.8c.2-.1.4-.3.5-.4.5-.6.9-1.2 1.2-1.9.2-.4.2-.8.2-1.3-.1.3-.3.5-.3.5-.8 1-1.3 1.5-2.3 2.2-.1.1-.2.1-.3.2-.1.1-.1.2 0 .3 0 .4.6.7 1 .4zm11.5 8.5c.2.1.3.1.5 0 .2-.2.4-.4.5-.6.6-1 1.2-2.6 1.3-3.7-.1.1-.5.8-.6.9-.3.4-.5.8-.8 1.2-.2.3-.5.7-.8 1-.2.2-.3.4-.3.7-.1.2.1.4.2.5zm1.5 1.2c.2.1.4 0 .6-.2.2-.3.5-.6.6-.9.2-.6.3-1.1.5-1.7.1-.2.3-1 .3-1.3l-.5.8-.2.2c-.4.6-.6.8-1.1 1.4-.2.3-.5.6-.6 1 .1.3.2.6.4.7zM56.1 60c.1-.1.2-.3.3-.4.3-.6.7-1.3 1-1.9.1-.3.7-1.4.8-1.6 0 0-.4.5-.4.6-.1.1-.6.8-.6.8-.5.7-.9 1.1-1.5 1.6-.1 0-.1.1-.1.2-.2.2 0 .6.2.8 0 0 .2 0 .3-.1zm-3.3-3.1c.1 0 .3 0 .4-.1l.3-.3c.3-.4.7-.8 1-1.2.1-.2.4-.8.4-1.1-.1.2-.4.6-.5.7-.3.4-.7.6-1.2.7-.2.1-.4.2-.5.3-.1.1-.2.3-.3.5 0 .3.1.5.4.5zm-.3-1.6c.1-.1.3-.2.4-.4.3-.5.8-.9 1-2.2-.1 0-.3.5-.5.8-.3.3-.6.6-1 .8-.1.1-.3.2-.4.3-.2.2-.2.4-.1.6.1.2.4.3.6.1zm-.7-1.2c.1 0 .2-.1.2-.1.4-.5.9-.9 1-2-.2.3-.5.8-.8 1.1-.2.2-.5.2-.6.3-.2.2-.1.5 0 .6 0 .1.1.2.2.1zm-.6-2.1l-.4.4c-.1.1-.1.2-.1.3 0 .1.1.4.2.4s.2-.1.3-.1c.3-.4.1-.7.5-1.6 0 .1-.4.5-.5.6zm12.2 8.8c-.4.5-.8 1.1-1.2 1.6-.1.2-.3.4-.4.6-.1.1-.1.3-.1.4 0 .4.4.8.8.6.2-.1.4-.2.5-.3.4-.3.6-.8.9-1.2.7-1.4 1.1-2.4 1.1-5.1-.1.4-.4 1.1-.4 1.1-.3 1-.6 1.5-1.2 2.3zm13-6.7c.2-.1.5-.4.6-.6l.9-1.2c.2-.3.3-.6.2-.9 0-.3-.3-.6-.6-.6-.4-.1-.9.1-1.1.5l-.6 1.2c-.3.8-.7 1.4-1.2 2-.1.1-.7.8-1 1.1l.7-.5c.7-.3 1.4-.6 2.1-1zM67.8 49c-.5-.4-1.2-.3-1.5.2 0 0-.1.2-.1.3-.4.9-.8 2-1.8 3.2 0 0-.3.3-.4.5.1 0 .5-.2.6-.2.1 0 .2-.1.3-.2.9-.6 1.8-1.3 2.5-2.2.2-.2.4-.5.5-.8.1-.1.1-.3.1-.5 0-.1 0-.2-.2-.3zm-1.5 4.7c.4-.1.9-.4 1.2-.6l1.7-1.7c.2-.2.6-.7.7-.9.1-.1.2-.3.2-.4.1-.4 0-.7-.4-.7-.5-.1-.9 0-1.1.5v.1c-.6 1.2-1.1 2.3-1.9 3.4-.2 0-.3.2-.4.3zm7.3-.3c.4-.7.6-1.5.9-2.3 0-.1.1-.2.1-.3 0-.3-.2-.5-.5-.6-.3-.1-.5 0-.7.2l-.3.6c-.1.4-.2.7-.2 1.1-.2 1-.5 1.8-1.1 2.7 0 0-.1.2-.2.2.1 0 .3-.1.4-.1.7-.3 1.3-.8 1.6-1.5zM65.4 48c-.3-.1-.6 0-.7.2-.1.1-.1.4-.2.5-.4 1.3-.8 2.4-1.5 3.6-.1.1-.2.4-.5.8.1-.1.7-.6.8-.7.5-.5.9-.9 1.3-1.5.3-.4.7-1 1.1-1.9.1-.2.1-.4.1-.6 0-.2-.2-.4-.4-.4zm5.4 3.9c.3-.3.5-.5.7-.9.1-.1.3-.4.4-.5.1-.2.1-.4-.1-.5-.1-.1-.3-.1-.4-.2-.4-.1-.6-.1-.9.2-.1.2-.3.5-.4.7-.4.9-1 2.2-1.1 2.5-.2.4-.3.7-.4.8.1-.1.3-.4.5-.5.2-.2.4-.4.6-.5.5-.3.8-.7 1.1-1.1zM81.9 54c.4-.4.4-.7-.1-1.1-.1-.1-.2-.1-.2-.2-.1-.1-.2-.1-.3 0l-.3.3c-.3.3-.6.7-.9 1-.5.5-1.3 1.3-2.3 2.1.1 0 .6-.3 1-.5s1.2-.5 1.8-.7c.5-.1.9-.5 1.3-.9zm-2.9-.9l.6-.9c.1-.1.1-.4.1-.6 0-.3-.2-.4-.5-.4s-.5.1-.7.3c-.1.1-.2.3-.3.5-.4.8-.4.9-.8 1.7-.1.2-.3.5-.5.8.1 0 .4-.2.5-.2.6-.3 1.1-.6 1.6-1.2zm-5.6 1.7c1-.8 1.8-1.9 2.3-3.1 0-.1.1-.4.2-.5 0-.2-.3-.4-.4-.3-.1.1-.3.2-.4.3l-.3.6c-.2.6-.5 1.1-.8 1.6-.2.3-.3.5-.5.8 0 .1-.2.4-.2.5 0 .1.1.1.1.1zm-9.6-7.3c-.2 0-.5 0-.6.2-.1.2-.4.9-.5 1.1-.3.8-.7 1.5-1.2 2.3.1 0 .3-.2.6-.3.6-.4 1.1-1 1.5-1.6.1-.2.3-.5.4-.7v-.7c0-.1-.1-.3-.2-.3zm6.9 6.8c.1-.2.5-.5.8-.8.8-.6 1.1-1.4 1.2-2.3v-.3c0-.1-.3-.1-.4-.1-.1.1-.3.3-.3.4-.2.5-.6 1.1-.8 1.5-.3.6-.8 1.7-1.1 2.2.1.2.4-.4.6-.6zM81 52.4c.1-.1.1-.3.1-.5s-.3-.3-.5-.3c-.2.1-.4.3-.5.6-.2.2-.8 1.2-1.1 1.5-.2.3-.4.6-.6.8.7-.5 1.7-1.1 2.2-1.6.1-.2.3-.3.4-.5zm-18.4-5.5c-.1-.1-.4 0-.5.1-.3.2-.3.6-.3.8-.2.5-.4.8-.7 1.3.7-.2 1.2-.7 1.6-1.2.1-.2.2-.4.2-.5-.1-.2-.2-.5-.3-.5zm-1.6-.6c-.1.1-.1.2-.2.3-.2.4-.4.9-.8 1.6.4-.3.9-.6 1.1-.9.2-.2.3-.4.3-.7 0-.1-.1-.2-.1-.3 0-.1-.2-.1-.3 0zm-.5-.6c-.3-.1-.5.1-.5.3 0 .2-.2.7-.4 1.1 0 0 .6-.5.8-.7.1-.2.3-.6.1-.7zm-1-.4c-.1-.1-.2 0-.3.1-.1.1-.1.6-.1.6s.2-.1.3-.3c.2 0 .2-.3.1-.4z"/></svg>